<?xml version="1.0" encoding="iso-8859-1"?>
<!-- Generator: Adobe Illustrator 19.2.1, SVG Export Plug-In . SVG Version: 6.00 Build 0)  -->
<svg version="1.1" xmlns="http://www.w3.org/2000/svg" xmlns:xlink="http://www.w3.org/1999/xlink" x="0px" y="0px"
	 viewBox="0 0 24 24" style="enable-background:new 0 0 24 24;" xml:space="preserve">
<g id="Mail">
</g>
<g id="Open_Mail">
</g>
<g id="Mail_Attachmet">
</g>
<g id="Mails">
</g>
<g id="Trash">
</g>
<g id="Trash_Full">
</g>
<g id="Preferences_1">
</g>
<g id="Preferences_2">
</g>
<g id="Mouse">
</g>
<g id="Computer">
</g>
<g id="Notebook">
</g>
<g id="Mobile_Phone">
</g>
<g id="Print">
</g>
<g id="Calculator">
</g>
<g id="Tag">
</g>
<g id="Paperclip">
</g>
<g id="Heart">
</g>
<g id="Lock">
</g>
<g id="Lock_Open">
</g>
<g id="Key_1">
</g>
<g id="Star">
</g>
<g id="Add">
</g>
<g id="Remove">
</g>
<g id="Error">
</g>
<g id="Check_1">
</g>
<g id="Time">
</g>
<g id="Question_Mark">
</g>
<g id="Error_Mark">
</g>
<g id="Sand-Glass">
</g>
<g id="Battery_Full">
</g>
<g id="Battery_Charge">
</g>
<g id="Battery_Half">
</g>
<g id="Battery_Low">
</g>
<g id="No_Battery">
</g>
<g id="Key_2">
</g>
<g id="Link">
</g>
<g id="Brake_Link">
</g>
<g id="Pencil">
</g>
<g id="At">
</g>
<g id="Reply">
</g>
<g id="Accessible">
</g>
<g id="Up_Arrow">
</g>
<g id="Brush">
</g>
<g id="Design_Mug">
</g>
<g id="Design">
</g>
<g id="Server">
</g>
<g id="Database">
</g>
<g id="Save">
</g>
<g id="Female">
</g>
<g id="Male">
</g>
<g id="Book">
</g>
<g id="Power">
</g>
<g id="Reload">
</g>
<g id="Map">
</g>
<g id="Loction_1">
</g>
<g id="Location_2">
</g>
<g id="Globe">
</g>
<g id="Suitcase">
</g>
<g id="Callendar">
</g>
<g id="Cloud_Off">
</g>
<g id="File_1">
</g>
<g id="File_2">
</g>
<g id="Folder">
</g>
<g id="Open_Folder">
</g>
<g id="Cloud">
</g>
<g id="Upload_Cloud">
</g>
<g id="Download_Cloud">
</g>
<g id="Eye">
</g>
<g id="Invisible">
</g>
<g id="Assignment">
</g>
<g id="Note_Book">
</g>
<g id="Webpage">
</g>
<g id="Mailbox">
</g>
<g id="Drive">
</g>
<g id="Disc">
</g>
<g id="Wifi_1">
</g>
<g id="Wifi_2">
</g>
<g id="Archive">
</g>
<g id="Archive_File">
</g>
<g id="News">
</g>
<g id="Home">
</g>
<g id="Collaboration">
</g>
<g id="Announcement">
</g>
<g id="Watch">
</g>
<g id="Clock">
</g>
<g id="Volume">
</g>
<g id="Mute">
</g>
<g id="Hand">
</g>
<g id="Layers">
	<g>
		<g>
			<path d="M12,14.5c-0.079,0-0.159-0.019-0.231-0.057l-11.5-6C0.104,8.357,0,8.187,0,8s0.104-0.357,0.269-0.443l11.5-6
				c0.145-0.076,0.318-0.076,0.463,0l11.5,6C23.896,7.643,24,7.813,24,8s-0.104,0.357-0.269,0.443l-11.5,6
				C12.159,14.481,12.079,14.5,12,14.5z M1.581,8L12,13.437L22.419,8L12,2.563L1.581,8z"/>
		</g>
		<g>
			<path d="M12,18.5c-0.079,0-0.159-0.019-0.231-0.057l-11.5-6C0.104,12.357,0,12.187,0,12s0.104-0.357,0.269-0.443l1.672-0.872
				c0.244-0.125,0.547-0.034,0.675,0.212c0.128,0.245,0.033,0.547-0.212,0.675L1.581,12L12,17.437L22.419,12l-0.822-0.429
				c-0.245-0.128-0.34-0.43-0.212-0.675s0.431-0.337,0.675-0.212l1.672,0.872C23.896,11.643,24,11.813,24,12
				s-0.104,0.357-0.269,0.443l-11.5,6C12.159,18.481,12.079,18.5,12,18.5z"/>
		</g>
		<g>
			<path d="M12,22.5c-0.079,0-0.159-0.019-0.231-0.057l-11.5-6C0.104,16.357,0,16.187,0,16s0.104-0.357,0.269-0.443l1.672-0.872
				c0.244-0.126,0.547-0.033,0.675,0.212s0.033,0.547-0.212,0.675L1.581,16L12,21.437L22.419,16l-0.822-0.429
				c-0.245-0.128-0.34-0.43-0.212-0.675s0.431-0.337,0.675-0.212l1.672,0.872C23.896,15.643,24,15.813,24,16
				s-0.104,0.357-0.269,0.443l-11.5,6C12.159,22.481,12.079,22.5,12,22.5z"/>
		</g>
	</g>
</g>
<g id="Bell">
</g>
<g id="Speach_Bubble">
</g>
<g id="Speach_Bubbles">
</g>
<g id="Zoom_In">
</g>
<g id="Zoom_Out">
</g>
<g id="Search">
</g>
<g id="Back_Arrow">
</g>
<g id="Close">
</g>
<g id="Check_2">
</g>
<g id="Left_Arrow_2">
</g>
<g id="Right_Arrow_2">
</g>
</svg>
