<?xml version="1.0" encoding="iso-8859-1"?>
<!-- Generator: Adobe Illustrator 19.2.1, SVG Export Plug-In . SVG Version: 6.00 Build 0)  -->
<svg version="1.1" xmlns="http://www.w3.org/2000/svg" xmlns:xlink="http://www.w3.org/1999/xlink" x="0px" y="0px"
	 viewBox="0 0 24 24" style="enable-background:new 0 0 24 24;" xml:space="preserve">
<g id="Mail">
</g>
<g id="Open_Mail">
</g>
<g id="Mail_Attachmet">
</g>
<g id="Mails">
</g>
<g id="Trash">
</g>
<g id="Trash_Full">
</g>
<g id="Preferences_1">
</g>
<g id="Preferences_2">
</g>
<g id="Mouse">
</g>
<g id="Computer">
</g>
<g id="Notebook">
</g>
<g id="Mobile_Phone">
</g>
<g id="Print">
</g>
<g id="Calculator">
</g>
<g id="Tag">
</g>
<g id="Paperclip">
</g>
<g id="Heart">
</g>
<g id="Lock">
</g>
<g id="Lock_Open">
</g>
<g id="Key_1">
</g>
<g id="Star">
</g>
<g id="Add">
</g>
<g id="Remove">
</g>
<g id="Error">
</g>
<g id="Check_1">
</g>
<g id="Time">
</g>
<g id="Question_Mark">
</g>
<g id="Error_Mark">
</g>
<g id="Sand-Glass">
</g>
<g id="Battery_Full">
</g>
<g id="Battery_Charge">
</g>
<g id="Battery_Half">
</g>
<g id="Battery_Low">
</g>
<g id="No_Battery">
</g>
<g id="Key_2">
</g>
<g id="Link">
</g>
<g id="Brake_Link">
</g>
<g id="Pencil">
	<g>
		<g>
			<path d="M0.5,24c-0.131,0-0.259-0.051-0.354-0.146c-0.129-0.128-0.177-0.316-0.127-0.491l2-7
				c0.023-0.082,0.066-0.156,0.127-0.216L17.561,0.732c0.947-0.945,2.593-0.943,3.535,0l2.172,2.171C23.74,3.376,24,4.004,24,4.672
				c0,0.667-0.26,1.295-0.732,1.768L7.854,21.854c-0.06,0.06-0.135,0.104-0.216,0.127l-7,2C0.592,23.994,0.546,24,0.5,24z
				 M2.945,16.762l-1.718,6.01l6.011-1.717L22.561,5.732c0.585-0.585,0.585-1.537,0-2.122l-2.172-2.171l0,0
				c-0.565-0.566-1.554-0.567-2.121,0L2.945,16.762z M7.5,21.5h0.01H7.5z"/>
		</g>
		<g>
			<path d="M7.5,22c-0.128,0-0.256-0.049-0.354-0.146c-0.195-0.195-0.195-0.512,0-0.707L22.561,5.732
				c0.585-0.585,0.585-1.537,0-2.122l-2.172-2.171c-0.565-0.566-1.554-0.567-2.121,0L2.854,16.854c-0.195,0.195-0.512,0.195-0.707,0
				s-0.195-0.512,0-0.707L17.561,0.732c0.947-0.945,2.593-0.943,3.535,0l2.172,2.171c0.975,0.975,0.975,2.561,0,3.536L7.854,21.854
				C7.756,21.951,7.628,22,7.5,22z"/>
		</g>
		<g>
			<path d="M7.5,22c-0.128,0-0.256-0.049-0.354-0.146l-5-5c-0.195-0.195-0.195-0.512,0-0.707s0.512-0.195,0.707,0l5,5
				c0.195,0.195,0.195,0.512,0,0.707C7.756,21.951,7.628,22,7.5,22z"/>
		</g>
		<g>
			<path d="M6.5,18c-0.128,0-0.256-0.049-0.354-0.146c-0.195-0.195-0.195-0.512,0-0.707l14-14c0.195-0.195,0.512-0.195,0.707,0
				s0.195,0.512,0,0.707l-14,14C6.756,17.951,6.628,18,6.5,18z"/>
		</g>
	</g>
</g>
<g id="At">
</g>
<g id="Reply">
</g>
<g id="Accessible">
</g>
<g id="Up_Arrow">
</g>
<g id="Brush">
</g>
<g id="Design_Mug">
</g>
<g id="Design">
</g>
<g id="Server">
</g>
<g id="Database">
</g>
<g id="Save">
</g>
<g id="Female">
</g>
<g id="Male">
</g>
<g id="Book">
</g>
<g id="Power">
</g>
<g id="Reload">
</g>
<g id="Map">
</g>
<g id="Loction_1">
</g>
<g id="Location_2">
</g>
<g id="Globe">
</g>
<g id="Suitcase">
</g>
<g id="Callendar">
</g>
<g id="Cloud_Off">
</g>
<g id="File_1">
</g>
<g id="File_2">
</g>
<g id="Folder">
</g>
<g id="Open_Folder">
</g>
<g id="Cloud">
</g>
<g id="Upload_Cloud">
</g>
<g id="Download_Cloud">
</g>
<g id="Eye">
</g>
<g id="Invisible">
</g>
<g id="Assignment">
</g>
<g id="Note_Book">
</g>
<g id="Webpage">
</g>
<g id="Mailbox">
</g>
<g id="Drive">
</g>
<g id="Disc">
</g>
<g id="Wifi_1">
</g>
<g id="Wifi_2">
</g>
<g id="Archive">
</g>
<g id="Archive_File">
</g>
<g id="News">
</g>
<g id="Home">
</g>
<g id="Collaboration">
</g>
<g id="Announcement">
</g>
<g id="Watch">
</g>
<g id="Clock">
</g>
<g id="Volume">
</g>
<g id="Mute">
</g>
<g id="Hand">
</g>
<g id="Layers">
</g>
<g id="Bell">
</g>
<g id="Speach_Bubble">
</g>
<g id="Speach_Bubbles">
</g>
<g id="Zoom_In">
</g>
<g id="Zoom_Out">
</g>
<g id="Search">
</g>
<g id="Back_Arrow">
</g>
<g id="Close">
</g>
<g id="Check_2">
</g>
<g id="Left_Arrow_2">
</g>
<g id="Right_Arrow_2">
</g>
</svg>
